{
  "accessors": [
    {
      "bufferView": 2,
      "componentType": 5126,
      "count": 4,
      "max": [
        39.95073318481445,
        -10.630106925964355,
        38.936466217041016
      ],
      "min": [
        -37.77561950683594,
        -10.630106925964355,
        -41.437015533447266
      ],
      "type": "VEC3"
    },
    {
      "bufferView": 2,
      "byteOffset": 48,
      "componentType": 5126,
      "count": 4,
      "max": [
        0.0,
        1.0,
        -0.0
      ],
      "min": [
        0.0,
        1.0,
        -0.0
      ],
      "type": "VEC3"
    },
    {
      "bufferView": 1,
      "componentType": 5126,
      "count": 4,
      "max": [
        0.9999017119407654,
        0.9669725894927979
      ],
      "min": [
        9.832010982790962e-05,
        9.832010982790962e-05
      ],
      "type": "VEC2"
    },
    {
      "bufferView": 0,
      "componentType": 5125,
      "count": 6,
      "type": "SCALAR"
    },
    {
      "bufferView": 2,
      "byteOffset": 96,
      "componentType": 5126,
      "count": 65533,
      "max": [
        19.533658981323242,
        4.598945617675781,
        13.264631271362305
      ],
      "min": [
        -14.513412475585938,
        -10.663908004760742,
        -20.160263061523438
      ],
      "type": "VEC3"
    },
    {
      "bufferView": 2,
      "byteOffset": 786492,
      "componentType": 5126,
      "count": 65533,
      "max": [
        1.0,
        1.0,
        1.0
      ],
      "min": [
        -0.9997080564498901,
        -1.0,
        -0.999907374382019
      ],
      "type": "VEC3"
    },
    {
      "bufferView": 1,
      "byteOffset": 32,
      "componentType": 5126,
      "count": 65533,
      "max": [
        0.9994937181472778,
        0.9996461868286133
      ],
      "min": [
        8.207522478187457e-05,
        8.207522478187457e-05
      ],
      "type": "VEC2"
    },
    {
      "bufferView": 0,
      "byteOffset": 24,
      "componentType": 5125,
      "count": 111465,
      "type": "SCALAR"
    },
    {
      "bufferView": 2,
      "byteOffset": 1572888,
      "componentType": 5126,
      "count": 65534,
      "max": [
        17.492366790771484,
        5.114500045776367,
        5.18819522857666
      ],
      "min": [
        -11.574146270751953,
        -10.623791694641113,
        -15.910174369812012
      ],
      "type": "VEC3"
    },
    {
      "bufferView": 2,
      "byteOffset": 2359296,
      "componentType": 5126,
      "count": 65534,
      "max": [
        1.0,
        1.0,
        1.0
      ],
      "min": [
        -1.0,
        -1.0,
        -1.0
      ],
      "type": "VEC3"
    },
    {
      "bufferView": 1,
      "byteOffset": 524296,
      "componentType": 5126,
      "count": 65534,
      "max": [
        0.9999169111251831,
        0.9999178647994995
      ],
      "min": [
        8.52346420288086e-05,
        8.207522478187457e-05
      ],
      "type": "VEC2"
    },
    {
      "bufferView": 0,
      "byteOffset": 445884,
      "componentType": 5125,
      "count": 81972,
      "type": "SCALAR"
    },
    {
      "bufferView": 2,
      "byteOffset": 3145704,
      "componentType": 5126,
      "count": 33320,
      "max": [
        16.85489845275879,
        4.965778350830078,
        5.18819522857666
      ],
      "min": [
        -11.574146270751953,
        -10.631784439086914,
        -16.171175003051758
      ],
      "type": "VEC3"
    },
    {
      "bufferView": 2,
      "byteOffset": 3545544,
      "componentType": 5126,
      "count": 33320,
      "max": [
        1.0,
        1.0,
        1.0
      ],
      "min": [
        -1.0,
        -1.0,
        -1.0
      ],
      "type": "VEC3"
    },
    {
      "bufferView": 1,
      "byteOffset": 1048568,
      "componentType": 5126,
      "count": 33320,
      "max": [
        0.9998995661735535,
        0.9999160170555115
      ],
      "min": [
        8.207522478187457e-05,
        8.207522478187457e-05
      ],
      "type": "VEC2"
    },
    {
      "bufferView": 0,
      "byteOffset": 773772,
      "componentType": 5125,
      "count": 57411,
      "type": "SCALAR"
    },
    {
      "bufferView": 2,
      "byteOffset": 3945384,
      "componentType": 5126,
      "count": 65532,
      "max": [
        14.486583709716797,
        19.840288162231445,
        -5.062171459197998
      ],
      "min": [
        -12.308660507202148,
        -10.609485626220703,
        -17.101329803466797
      ],
      "type": "VEC3"
    },
    {
      "bufferView": 2,
      "byteOffset": 4731768,
      "componentType": 5126,
      "count": 65532,
      "max": [
        1.0,
        1.0,
        1.0
      ],
      "min": [
        -1.0,
        -1.0,
        -1.0
      ],
      "type": "VEC3"
    },
    {
      "bufferView": 1,
      "byteOffset": 1315128,
      "componentType": 5126,
      "count": 65532,
      "max": [
        0.9994076490402222,
        0.9994184970855713
      ],
      "min": [
        0.0005813837051391602,
        0.0005813837051391602
      ],
      "type": "VEC2"
    },
    {
      "bufferView": 0,
      "byteOffset": 1003416,
      "componentType": 5125,
      "count": 125904,
      "type": "SCALAR"
    },
    {
      "bufferView": 2,
      "byteOffset": 5518152,
      "componentType": 5126,
      "count": 47356,
      "max": [
        16.2099609375,
        19.840288162231445,
        -5.062171459197998
      ],
      "min": [
        -12.308660507202148,
        -10.609485626220703,
        -20.61034393310547
      ],
      "type": "VEC3"
    },
    {
      "bufferView": 2,
      "byteOffset": 6086424,
      "componentType": 5126,
      "count": 47356,
      "max": [
        1.0,
        1.0,
        1.0
      ],
      "min": [
        -1.0,
        -1.0,
        -1.0
      ],
      "type": "VEC3"
    },
    {
      "bufferView": 1,
      "byteOffset": 1839384,
      "componentType": 5126,
      "count": 47356,
      "max": [
        0.9994076490402222,
        0.9994142055511475
      ],
      "min": [
        0.0005814135074615479,
        0.0005813837051391602
      ],
      "type": "VEC2"
    },
    {
      "bufferView": 0,
      "byteOffset": 1507032,
      "componentType": 5125,
      "count": 90570,
      "type": "SCALAR"
    },
    {
      "bufferView": 2,
      "byteOffset": 6654696,
      "componentType": 5126,
      "count": 2430,
      "max": [
        13.241048812866211,
        3.968898057937622,
        0.5646529793739319
      ],
      "min": [
        -9.5347900390625,
        -8.008056640625,
        -11.913640022277832
      ],
      "type": "VEC3"
    },
    {
      "bufferView": 2,
      "byteOffset": 6683856,
      "componentType": 5126,
      "count": 2430,
      "max": [
        0.992277979850769,
        1.0,
        0.9997177124023438
      ],
      "min": [
        -0.9071541428565979,
        -1.0,
        -0.9070446491241455
      ],
      "type": "VEC3"
    },
    {
      "bufferView": 1,
      "byteOffset": 2218232,
      "componentType": 5126,
      "count": 2430,
      "max": [
        1.0,
        0.98137366771698
      ],
      "min": [
        0.0,
        0.0
      ],
      "type": "VEC2"
    },
    {
      "bufferView": 0,
      "byteOffset": 1869312,
      "componentType": 5125,
      "count": 5448,
      "type": "SCALAR"
    },
    {
      "bufferView": 2,
      "byteOffset": 6713016,
      "componentType": 5126,
      "count": 42409,
      "max": [
        16.953754425048828,
        -1.9989442825317383,
        8.235002517700195
      ],
      "min": [
        -11.648822784423828,
        -10.626677513122559,
        -2.7567801475524902
      ],
      "type": "VEC3"
    },
    {
      "bufferView": 2,
      "byteOffset": 7221924,
      "componentType": 5126,
      "count": 42409,
      "max": [
        1.0,
        1.0,
        1.0
      ],
      "min": [
        -1.0,
        -1.0,
        -1.0
      ],
      "type": "VEC3"
    },
    {
      "bufferView": 1,
      "byteOffset": 2237672,
      "componentType": 5126,
      "count": 42409,
      "max": [
        0.9989479184150696,
        0.9989514350891113
      ],
      "min": [
        0.0005813837051391602,
        0.0005813837051391602
      ],
      "type": "VEC2"
    },
    {
      "bufferView": 0,
      "byteOffset": 1891104,
      "componentType": 5125,
      "count": 71298,
      "type": "SCALAR"
    }
  ],
  "asset": {
    "extras": {
      "author": "ra_fuq (https://sketchfab.com/nevidaes)",
      "license": "CC-BY-NC-ND-4.0 (http://creativecommons.org/licenses/by-nc-nd/4.0/)",
      "source": "https://sketchfab.com/3d-models/surveillance-room-7fd56cd3917443a99966352beefd8304",
      "title": "Surveillance room"
    },
    "generator": "Sketchfab-12.67.0",
    "version": "2.0"
  },
  "bufferViews": [
    {
      "buffer": 0,
      "byteLength": 2176296,
      "name": "floatBufferViews",
      "target": 34963
    },
    {
      "buffer": 0,
      "byteLength": 2576944,
      "byteOffset": 2176296,
      "byteStride": 8,
      "name": "floatBufferViews",
      "target": 34962
    },
    {
      "buffer": 0,
      "byteLength": 7730832,
      "byteOffset": 4753240,
      "byteStride": 12,
      "name": "floatBufferViews",
      "target": 34962
    }
  ],
  "buffers": [
    {
      "byteLength": 12484072,
      "uri": "scene.bin"
    }
  ],
  "extensionsUsed": [
    "KHR_materials_unlit"
  ],
  "images": [
    {
      "uri": "textures/material_baseColor.png"
    },
    {
      "uri": "textures/Shading2_cables_baseColor.png"
    },
    {
      "uri": "textures/Shading1_baseColor.png"
    }
  ],
  "materials": [
    {
      "extensions": {
        "KHR_materials_unlit": {}
      },
      "name": "material",
      "pbrMetallicRoughness": {
        "baseColorTexture": {
          "index": 0
        },
        "metallicFactor": 0.0
      }
    },
    {
      "doubleSided": true,
      "extensions": {
        "KHR_materials_unlit": {}
      },
      "name": "Shading2_cables",
      "pbrMetallicRoughness": {
        "baseColorTexture": {
          "index": 1
        },
        "metallicFactor": 0.0
      }
    },
    {
      "doubleSided": true,
      "extensions": {
        "KHR_materials_unlit": {}
      },
      "name": "Shading1",
      "pbrMetallicRoughness": {
        "baseColorTexture": {
          "index": 2
        },
        "metallicFactor": 0.0
      }
    },
    {
      "doubleSided": true,
      "emissiveFactor": [
        1.0,
        1.0,
        0.027516095498864118
      ],
      "extensions": {
        "KHR_materials_unlit": {}
      },
      "name": "Lumires",
      "pbrMetallicRoughness": {
        "baseColorFactor": [
          1.0,
          0.9570796075519326,
          0.49203814104980514,
          1.0
        ],
        "metallicFactor": 0.0
      }
    }
  ],
  "meshes": [
    {
      "name": "Object_0",
      "primitives": [
        {
          "attributes": {
            "NORMAL": 1,
            "POSITION": 0,
            "TEXCOORD_0": 2
          },
          "indices": 3,
          "material": 0,
          "mode": 4
        }
      ]
    },
    {
      "name": "Object_1",
      "primitives": [
        {
          "attributes": {
            "NORMAL": 5,
            "POSITION": 4,
            "TEXCOORD_0": 6
          },
          "indices": 7,
          "material": 1,
          "mode": 4
        }
      ]
    },
    {
      "name": "Object_2",
      "primitives": [
        {
          "attributes": {
            "NORMAL": 9,
            "POSITION": 8,
            "TEXCOORD_0": 10
          },
          "indices": 11,
          "material": 1,
          "mode": 4
        }
      ]
    },
    {
      "name": "Object_3",
      "primitives": [
        {
          "attributes": {
            "NORMAL": 13,
            "POSITION": 12,
            "TEXCOORD_0": 14
          },
          "indices": 15,
          "material": 1,
          "mode": 4
        }
      ]
    },
    {
      "name": "Object_4",
      "primitives": [
        {
          "attributes": {
            "NORMAL": 17,
            "POSITION": 16,
            "TEXCOORD_0": 18
          },
          "indices": 19,
          "material": 2,
          "mode": 4
        }
      ]
    },
    {
      "name": "Object_5",
      "primitives": [
        {
          "attributes": {
            "NORMAL": 21,
            "POSITION": 20,
            "TEXCOORD_0": 22
          },
          "indices": 23,
          "material": 2,
          "mode": 4
        }
      ]
    },
    {
      "name": "Object_6",
      "primitives": [
        {
          "attributes": {
            "NORMAL": 25,
            "POSITION": 24,
            "TEXCOORD_0": 26
          },
          "indices": 27,
          "material": 3,
          "mode": 4
        }
      ]
    },
    {
      "name": "Object_7",
      "primitives": [
        {
          "attributes": {
            "NORMAL": 29,
            "POSITION": 28,
            "TEXCOORD_0": 30
          },
          "indices": 31,
          "material": 2,
          "mode": 4
        }
      ]
    }
  ],
  "nodes": [
    {
      "children": [
        1
      ],
      "matrix": [
        0.19152285158634186,
        0.0,
        0.0,
        0.0,
        0.0,
        4.2526615914604684e-17,
        -0.19152285158634186,
        0.0,
        0.0,
        0.19152285158634186,
        4.2526615914604684e-17,
        0.0,
        0.0,
        0.0,
        0.0,
        1.0
      ],
      "name": "Sketchfab_model"
    },
    {
      "children": [
        2
      ],
      "name": "root"
    },
    {
      "children": [
        3,
        5,
        9,
        12,
        14
      ],
      "matrix": [
        1.0,
        0.0,
        0.0,
        0.0,
        0.0,
        2.220446049250313e-16,
        1.0,
        0.0,
        0.0,
        -1.0,
        2.220446049250313e-16,
        0.0,
        0.0,
        0.0,
        0.0,
        1.0
      ],
      "name": "GLTF_SceneRootNode"
    },
    {
      "children": [
        4
      ],
      "matrix": [
        1.0,
        0.0,
        0.0,
        0.0,
        0.0,
        1.0,
        0.0,
        0.0,
        0.0,
        0.0,
        1.0,
        0.0,
        10.911038398742676,
        -4.45139217376709,
        11.013423919677734,
        1.0
      ],
      "name": "BezierCurve_0"
    },
    {
      "mesh": 0,
      "name": "Object_4"
    },
    {
      "children": [
        6,
        7,
        8
      ],
      "matrix": [
        1.0,
        0.0,
        0.0,
        0.0,
        0.0,
        1.0,
        0.0,
        0.0,
        0.0,
        0.0,
        1.0,
        0.0,
        10.911038398742676,
        -4.45139217376709,
        11.013423919677734,
        1.0
      ],
      "name": "BezierCurve.001_1"
    },
    {
      "mesh": 1,
      "name": "Object_6"
    },
    {
      "mesh": 2,
      "name": "Object_7"
    },
    {
      "mesh": 3,
      "name": "Object_8"
    },
    {
      "children": [
        10,
        11
      ],
      "matrix": [
        1.0,
        0.0,
        0.0,
        0.0,
        0.0,
        1.0,
        0.0,
        0.0,
        0.0,
        0.0,
        1.0,
        0.0,
        10.911038398742676,
        -4.45139217376709,
        11.013423919677734,
        1.0
      ],
      "name": "BezierCurve.002_2"
    },
    {
      "mesh": 4,
      "name": "Object_10"
    },
    {
      "mesh": 5,
      "name": "Object_11"
    },
    {
      "children": [
        13
      ],
      "matrix": [
        1.0,
        0.0,
        0.0,
        0.0,
        0.0,
        1.0,
        0.0,
        0.0,
        0.0,
        0.0,
        1.0,
        0.0,
        10.911038398742676,
        -4.45139217376709,
        11.013423919677734,
        1.0
      ],
      "name": "BezierCurve.003_3"
    },
    {
      "mesh": 6,
      "name": "Object_13"
    },
    {
      "children": [
        15
      ],
      "matrix": [
        1.0,
        0.0,
        0.0,
        0.0,
        0.0,
        1.0,
        0.0,
        0.0,
        0.0,
        0.0,
        1.0,
        0.0,
        10.911038398742676,
        -4.45139217376709,
        11.013423919677734,
        1.0
      ],
      "name": "BezierCurve.004_4"
    },
    {
      "mesh": 7,
      "name": "Object_15"
    }
  ],
  "samplers": [
    {
      "magFilter": 9729,
      "minFilter": 9987,
      "wrapS": 10497,
      "wrapT": 10497
    }
  ],
  "scene": 0,
  "scenes": [
    {
      "name": "Sketchfab_Scene",
      "nodes": [
        0
      ]
    }
  ],
  "textures": [
    {
      "sampler": 0,
      "source": 0
    },
    {
      "sampler": 0,
      "source": 1
    },
    {
      "sampler": 0,
      "source": 2
    }
  ]
}
